HIERARCHY
ROOT root
{
	OFFSET	0	13.1	24.9
	CHANNELS 6  Xposition Yposition Zposition Xrotation Yrotation Zrotation
	JOINT spine_1
	{
		OFFSET	0	9.99999	0
		CHANNELS 3  Xrotation Yrotation Zrotation
		JOINT spine_2
		{
			OFFSET	0	112	-10
			CHANNELS 3  Xrotation Yrotation Zrotation
			JOINT spine_3
			{
				OFFSET	0	206.5	19.3
				CHANNELS 3  Xrotation Yrotation Zrotation
				JOINT spine_4
				{
					OFFSET	0	110.4	14.6
					CHANNELS 3  Xrotation Yrotation Zrotation
					JOINT neck_1
					{
						OFFSET	0	71.8	-50.3
						CHANNELS 3  Xrotation Yrotation Zrotation
						JOINT neck_2
						{
							OFFSET	0	86.2	-25.8
							CHANNELS 3  Xrotation Yrotation Zrotation
							JOINT head_ee
							{
								OFFSET	0	179.8	-8.7
								CHANNELS 3  Xrotation Yrotation Zrotation
								End Site
								{
									OFFSET	1	0	0
								}
							}
						}
					}
					JOINT left_clavicle
					{
						OFFSET	-43.2	22.4	-70.8
						CHANNELS 3  Xrotation Yrotation Zrotation
						JOINT left_shoulder
						{
							OFFSET	-93.9	-5.79999	48.7
							CHANNELS 3  Xrotation Yrotation Zrotation
							JOINT left_elbow
							{
								OFFSET	-291.4	-30.8	15.2
								CHANNELS 3  Xrotation Yrotation Zrotation
								JOINT left_lowarm_twist
								{
									OFFSET	-110.7	-3.89999	13.6
									CHANNELS 3  Xrotation Yrotation Zrotation
									JOINT left_hand
									{
										OFFSET	-110.7	-3.89999	13.6
										CHANNELS 3  Xrotation Yrotation Zrotation
										JOINT left_ee
										{
											OFFSET	-80.8	-5.10001	12.1
											CHANNELS 3  Xrotation Yrotation Zrotation
											End Site
											{
												OFFSET	1	0	0
											}
										}
									}
								}
							}
						}
					}
					JOINT right_clavicle
					{
						OFFSET	43.2	22.4	-70.8
						CHANNELS 3  Xrotation Yrotation Zrotation
						JOINT right_shoulder
						{
							OFFSET	93.9	-5.79999	48.7
							CHANNELS 3  Xrotation Yrotation Zrotation
							JOINT right_elbow
							{
								OFFSET	291.4	-30.8	15.2
								CHANNELS 3  Xrotation Yrotation Zrotation
								JOINT right_lowarm_twist
								{
									OFFSET	110.7	-3.89999	13.6
									CHANNELS 3  Xrotation Yrotation Zrotation
									JOINT right_hand
									{
										OFFSET	110.7	-3.89999	13.6
										CHANNELS 3  Xrotation Yrotation Zrotation
										JOINT right_ee
										{
											OFFSET	80.8	-5.10001	12.1
											CHANNELS 3  Xrotation Yrotation Zrotation
											End Site
											{
												OFFSET	1	0	0
											}
										}
									}
								}
							}
						}
					}
				}
			}
		}
	}
	JOINT left_hip
	{
		OFFSET	-82.8	-127.5	0.300001
		CHANNELS 3  Xrotation Yrotation Zrotation
		JOINT left_knee
		{
			OFFSET	-28.2	-396.7	2.2
			CHANNELS 3  Xrotation Yrotation Zrotation
			JOINT left_ankle
			{
				OFFSET	-11.7	-411.3	35.4
				CHANNELS 3  Xrotation Yrotation Zrotation
				JOINT left_toes
				{
					OFFSET	0	-60	-88.6
					CHANNELS 3  Xrotation Yrotation Zrotation
					JOINT left_foot_ee
					{
						OFFSET	-22.5	-16.5	-42.2
						CHANNELS 3  Xrotation Yrotation Zrotation
						End Site
						{
							OFFSET	1	0	0
						}
					}
				}
			}
		}
	}
	JOINT right_hip
	{
		OFFSET	82.8	-127.5	0.300001
		CHANNELS 3  Xrotation Yrotation Zrotation
		JOINT right_knee
		{
			OFFSET	28.2	-396.7	2.2
			CHANNELS 3  Xrotation Yrotation Zrotation
			JOINT right_ankle
			{
				OFFSET	11.7	-411.3	35.4
				CHANNELS 3  Xrotation Yrotation Zrotation
				JOINT right_toes
				{
					OFFSET	0	-60	-88.6
					CHANNELS 3  Xrotation Yrotation Zrotation
					JOINT right_foot_ee
					{
						OFFSET	22.5	-16.5	-42.2
						CHANNELS 3  Xrotation Yrotation Zrotation
						End Site
						{
							OFFSET	1	0	0
						}
					}
				}
			}
		}
	}
}
MOTION
Frames: 5
Frame Time: 0.02
3177.02 653.055 -1669.29 0.555216419347 63.1681105852 -0.00605542539674 -0.682411 0.379474 -0.0562017 -0.682491 0.382281 -0.0319406 -0.68276 0.379844 0.0536495 -0.682559 0.383549 -0.00701386 -12.8026 18.2219 4.99425 -13.4319 31.5839 10.4123 -0.0 0.0 -0.0 2.04585 23.7886 5.5338 -19.6375 -9.29342 73.5944 1.18738 -30.4627 0.323313 -26.483 -1.64129 2.93094 -0.354226 28.0283 9.04625 -0.0 0.0 -0.0 12.7938 23.6747 -25.4525 15.2356 10.8268 -69.3582 3.24105 58.0702 -1.79947 -31.552 2.10075 -3.39031 0.101914 -9.94354 -4.77468 0.0 0.0 0.0 36.2177 18.5511 -16.9129 2.531 -0.11247 -0.372051 -9.17973 -28.257 1.71046 -7.71764 0.0 0.0 -0.0 0.0 -0.0 -6.58274 23.6321 -3.55561 -41.9445 0.59509 -6.26833 39.8751 7.34217 4.9603 -12.3858 0.0 0.0 0.0 0.0 0.0 
3156.18309686 662.193 -1670.16844602 -0.728542498432 63.2889780138 1.35652989953 -0.731418 0.330543 -0.03642 -0.731478 0.332191 -0.0153127 -0.731608 0.327262 0.0590313 -0.731459 0.332478 0.00660493 -10.6278 17.7688 6.31981 -10.8895 29.4324 10.8498 -0.0 0.0 -0.0 1.88712 24.4293 5.35106 -17.1339 -9.38758 73.8906 1.27924 -32.361 0.371196 -27.7787 -1.75482 3.05217 -0.748735 27.2565 6.57236 -0.0 0.0 -0.0 12.8815 23.7896 -25.644 14.045 10.5991 -68.739 2.87603 54.9243 -1.49498 -31.4782 2.09377 -3.38391 0.623788 -8.68015 -7.65274 0.0 0.0 0.0 37.3623 20.0371 -16.9992 -1.24271 0.0491705 0.184369 -10.7537 -26.5593 1.96562 -6.01713 0.0 0.0 -0.0 0.0 -0.0 -4.58878 23.0286 -4.82384 -42.4671 0.631137 -6.34015 39.822 4.02328 4.90236 -12.8513 0.0 0.0 0.0 0.0 0.0 
3134.17849654 670.941 -1677.55468276 -2.29731869977 62.9627091307 3.45591891999 -0.780529 0.190685 0.0270595 -0.780548 0.188577 0.0391385 -0.780427 0.175062 0.0802904 -0.780388 0.185545 0.0516349 -8.81567 18.8997 7.2241 -8.88563 30.5342 11.5155 -0.0 0.0 -0.0 2.01264 24.5297 5.52482 -15.4129 -8.12336 72.82 1.24415 -31.6447 0.352595 -28.1887 -1.79132 3.09 -0.909863 24.2842 4.45235 -0.0 0.0 -0.0 12.8113 22.9775 -25.5604 11.7394 11.9961 -70.0597 2.77888 53.9939 -1.41593 -31.1635 2.06411 -3.35655 0.961059 -7.65975 -9.4677 0.0 0.0 0.0 37.8969 22.0783 -18.2658 -1.3682 0.0539131 0.203043 -13.0534 -26.5213 2.39179 -4.76124 0.0 0.0 -0.0 0.0 -0.0 -3.03144 23.2507 -5.50112 -43.9029 0.73355 -6.53581 39.3884 0.452752 4.82646 -11.6987 0.0 0.0 0.0 0.0 0.0 
3134.21816876 670.941 -1677.75774126 -2.27620026694 62.6912318742 3.43218058014 -0.780529 0.190685 0.0270595 -0.780548 0.188577 0.0391385 -0.780427 0.175062 0.0802904 -0.780388 0.185545 0.0516349 -8.81567 18.8997 7.2241 -8.88563 30.5342 11.5155 -0.0 0.0 -0.0 2.01264 24.5297 5.52482 -15.4129 -8.12336 72.82 1.24415 -31.6447 0.352595 -28.1887 -1.79132 3.09 -0.909863 24.2842 4.45235 -0.0 0.0 -0.0 12.8113 22.9775 -25.5604 11.7394 11.9961 -70.0597 2.77888 53.9939 -1.41593 -31.1635 2.06411 -3.35655 0.961059 -7.65975 -9.4677 0.0 0.0 0.0 37.8969 22.0783 -18.2658 -1.3682 0.0539131 0.203043 -13.0534 -26.5213 2.39179 -4.76124 0.0 0.0 -0.0 0.0 -0.0 -3.03144 23.2507 -5.50112 -43.9029 0.73355 -6.53581 39.3884 0.452752 4.82646 -11.6987 0.0 0.0 0.0 0.0 0.0 
3017.93337787 691.777 -1685.80221541 -1.93555487951 56.9546103364 6.03383636804 -1.15588 -0.19999 -0.229598 -1.15587 -0.184975 -0.241858 -1.15505 -0.124435 -0.277897 -1.15512 -0.166762 -0.254757 2.63578 21.6732 6.30995 3.73257 32.7772 8.26802 -0.0 0.0 -0.0 3.30485 22.2001 7.23596 -9.21252 -6.63914 71.3773 1.20636 -30.8611 0.33299 -28.2249 -1.79455 3.09333 -0.843982 14.9901 0.897419 -0.0 0.0 -0.0 11.944 17.9534 -23.9356 6.34494 13.374 -71.1565 1.90007 43.2617 -0.753533 -29.9872 1.95458 -3.25283 2.53905 -4.88169 -19.1057 0.0 0.0 0.0 37.6684 28.8633 -23.3512 -10.0374 0.281364 1.51275 -5.72773 -24.7332 1.01541 2.74805 -0.0 -0.0 -0.0 0.0 -0.0 -3.18544 23.9602 -4.76183 -47.6768 1.02591 -7.03748 40.2429 -2.10639 4.88465 -7.54969 0.0 0.0 0.0 0.0 0.0 
